<svg width="710" height="200" viewBox="0 0 710 200" fill="none" xmlns="http://www.w3.org/2000/svg">
<path fill-rule="evenodd" clip-rule="evenodd" d="M563.602 74.1088V148.218H574.484H585.366V74.1088V0H574.484H563.602V74.1088ZM2.05253 2.15159C2.63752 3.73283 3.84953 6.74597 7.98049 16.8856C23.6675 55.3925 36.3977 86.9122 36.3977 87.2465C36.3977 87.3471 28.2083 87.4296 18.1989 87.4296H0V95.8724V104.315H21.7235C38.7553 104.315 43.4859 104.417 43.6281 104.784C43.728 105.042 45.4593 109.306 47.475 114.259C49.4912 119.212 53.3865 128.837 56.1317 135.647L61.1227 148.03L71.4619 148.13C77.1486 148.185 81.8011 148.132 81.8011 148.013C81.8011 147.893 79.8743 143.036 77.5197 137.219C75.1647 131.401 71.9741 123.518 70.4296 119.7C68.8848 115.882 66.6919 110.478 65.5568 107.692C64.4214 104.906 60.5869 95.4503 57.0356 86.6792C53.4844 77.9081 49.6484 68.4522 48.5111 65.666C47.3741 62.8799 44.46 55.7036 42.0356 49.7186C34.4976 31.1114 27.5445 13.967 24.8386 7.31707L22.2432 0.938086L11.8867 0.838271L1.53021 0.738462L2.05253 2.15159ZM132.024 38.7013C125.468 39.4533 117.859 42.1636 113.03 45.4675C110.723 47.0465 107.755 49.8394 105.012 53.0116C103.568 54.6822 102.808 55.3253 102.795 54.8878C102.784 54.5212 102.779 51.224 102.783 47.561L102.791 40.9006H93.7966H84.803V94.5591V148.218H94.6529H104.503V117.73C104.503 100.962 104.64 85.7223 104.807 83.8649C104.974 82.0075 105.146 79.9812 105.188 79.3621C105.23 78.743 105.379 78.0578 105.518 77.8398C105.657 77.6214 105.719 77.1148 105.654 76.7141C105.59 76.3129 105.699 75.7812 105.897 75.5325C106.094 75.2833 106.154 74.9152 106.03 74.7141C105.905 74.5129 105.987 74.2353 106.211 74.0968C106.435 73.9583 106.534 73.6255 106.43 73.3572C106.327 73.0886 106.358 72.7538 106.499 72.6131C106.639 72.4728 106.775 72.203 106.801 72.0139C106.827 71.8248 106.89 71.5854 106.942 71.4822C106.993 71.379 107.071 71.1681 107.114 71.0131C107.157 70.8582 107.762 69.5512 108.458 68.1081C109.941 65.036 113.51 61.2833 116.797 59.3415C124.792 54.6184 135.707 53.2191 143.538 55.9137C151.269 58.5737 155.86 65.4991 157.21 76.5381C157.452 78.5182 157.598 92.6371 157.598 113.968V148.218H167.376H177.154L177.004 108.349C176.839 64.8563 176.892 65.9403 174.64 59.606C172.553 53.7355 168.661 48.5839 163.839 45.3088C155.755 39.8199 143.845 37.3463 132.024 38.7013ZM228.749 38.6582C215.282 40.2037 204.956 44.9212 196.621 53.3355C187.592 62.4518 183.149 74.4728 182.495 91.5572C182.033 103.647 183.836 114.982 187.48 122.889C188.574 125.262 190.529 128.712 191.217 129.486C191.507 129.811 191.745 130.191 191.745 130.33C191.745 130.468 192.041 130.884 192.401 131.254C192.762 131.625 193.396 132.401 193.809 132.979C194.58 134.06 197.676 137.125 200 139.11C205.697 143.974 214.604 148.034 223.077 149.63C227.968 150.552 242.371 150.536 247.092 149.604C261.069 146.845 272.777 139.49 279.824 129.042C281.735 126.208 283.853 122.326 283.487 122.326C283.376 122.326 283.561 121.904 283.899 121.388C284.238 120.872 284.406 120.45 284.275 120.45C284.143 120.45 284.312 120.028 284.65 119.512C284.988 118.996 285.14 118.574 284.988 118.574C284.836 118.574 284.899 118.347 285.129 118.071C285.359 117.794 285.44 117.46 285.309 117.329C285.178 117.198 285.285 116.834 285.546 116.519C285.807 116.205 285.895 115.947 285.741 115.947C285.587 115.947 285.65 115.721 285.88 115.444C286.109 115.167 286.197 114.841 286.075 114.719C285.953 114.596 285.986 114.282 286.148 114.02C286.311 113.757 286.497 113.028 286.563 112.4C286.629 111.771 286.791 111.004 286.925 110.694C287.057 110.385 287.131 109.767 287.088 109.323C287.045 108.878 287.173 108.414 287.372 108.291C287.571 108.167 287.647 107.732 287.54 107.322C287.433 106.913 287.456 106.288 287.592 105.933C288.09 104.637 288.453 88.9242 288.002 88.1951C287.863 87.9704 287.794 87.066 287.848 86.1857C287.902 85.3051 287.818 84.3767 287.66 84.1227C287.504 83.8683 287.411 83.1996 287.456 82.6368C287.501 82.0739 287.408 81.3107 287.25 80.9407C287.091 80.5707 287.066 80.164 287.192 80.0372C287.319 79.9103 287.237 79.582 287.009 79.3077C286.782 79.0334 286.691 78.5587 286.808 78.2533C286.926 77.9475 286.845 77.5887 286.63 77.4555C286.415 77.3223 286.322 76.8953 286.424 76.5058C286.525 76.1167 286.444 75.6964 286.243 75.5722C286.042 75.448 285.96 75.1306 286.062 74.8672C286.162 74.6034 286.056 74.1985 285.824 73.967C285.593 73.7355 285.542 73.546 285.712 73.546C285.882 73.546 285.811 73.2927 285.553 72.9831C285.296 72.6735 285.212 72.4203 285.366 72.4203C285.52 72.4203 285.435 72.167 285.178 71.8574C284.921 71.5478 284.837 71.2946 284.991 71.2946C285.144 71.2946 285.06 71.0413 284.803 70.7317C284.546 70.4221 284.462 70.1689 284.615 70.1689C284.769 70.1689 284.685 69.9156 284.428 69.606C284.171 69.2964 284.085 69.0432 284.238 69.0432C284.389 69.0432 284.238 68.621 283.899 68.1051C283.561 67.5891 283.376 67.167 283.486 67.167C283.597 67.167 283.158 66.1118 282.509 64.8218C275.574 51.0281 262.644 41.8638 246.353 39.1966C242.098 38.5002 232.647 38.2109 228.749 38.6582ZM340.525 38.5366C329.574 39.5313 319.89 44.454 313.604 52.221L310.882 55.585L310.78 48.2428L310.678 40.9006H302.056H293.433V94.5591V148.218H303.171H312.908L313.049 114.728C313.185 82.5171 313.22 81.1021 313.969 77.6735C317.332 62.2743 324.469 55.6492 338.837 54.5914C349.423 53.812 356.376 58.579 359.197 68.5501C360.025 71.4762 360.027 71.5598 360.138 109.85L360.249 148.218H369.993H379.737L379.744 116.417C379.747 98.1655 379.908 83.1167 380.121 81.0983C381.331 69.6094 386.382 61.3235 394.559 57.4131C401.693 54.0015 411.238 53.5812 417.41 56.4071C420.662 57.8957 424.515 61.8901 424.968 64.2417C425.047 64.6544 425.302 65.2206 425.534 65.5002C425.766 65.7797 425.854 66.173 425.73 66.3741C425.605 66.5752 425.678 66.8477 425.891 66.9794C426.104 67.1111 426.182 67.376 426.063 67.5681C425.944 67.7602 425.982 68.1287 426.148 68.3865C426.313 68.6447 426.456 69.1932 426.464 69.606C426.472 70.0188 426.578 70.5253 426.698 70.7317C426.818 70.9381 426.884 71.8668 426.845 72.7955C426.805 73.7242 426.91 74.6683 427.078 74.8931C427.247 75.1182 427.344 91.7085 427.295 111.76L427.204 148.218H437.054H446.904L446.903 109.475C446.902 83.6349 446.765 69.6071 446.49 67.3546C444.977 54.9629 439.833 46.5659 431.144 42.3081C422.717 38.1779 410.963 37.2004 400.692 39.7752C396.829 40.7437 390.124 43.9925 386.867 46.4739C384.392 48.3598 380.1 52.6413 378.005 55.3148L376.854 56.7835L375.2 53.6263C372.723 48.8987 368.336 44.6038 363.601 42.2724C357.183 39.1122 348.917 37.7741 340.525 38.5366ZM497.958 38.681C477.357 40.2589 464.206 47.9902 458.292 62.0004C456.892 65.3152 455.09 71.5824 455.469 71.8165C455.709 71.9651 471.082 73.8833 473.261 74.0364C474.248 74.1058 474.347 73.9407 475.725 69.9343C477.41 65.0323 478.863 62.6165 481.669 60.0522C486.579 55.5651 495.529 53.2743 506.191 53.7764C523.36 54.585 529.915 60.2762 530.804 75.1475C531.077 79.7242 530.952 80.1024 529.051 80.4525C528.552 80.5445 528.143 80.645 528.143 80.6762C528.143 80.7073 527.889 80.7944 527.58 80.8698C526.373 81.1636 525.293 81.4353 524.484 81.6488C524.02 81.7715 523.347 81.8664 522.991 81.8604C522.633 81.854 522.248 81.9996 522.134 82.1839C522.02 82.3681 521.696 82.4304 521.414 82.3219C521.132 82.2139 520.794 82.2983 520.664 82.5096C520.533 82.7212 520.176 82.7981 519.871 82.6807C519.565 82.5636 519.094 82.651 518.824 82.8754C518.553 83.0998 517.795 83.2154 517.14 83.1325C516.484 83.0495 515.947 83.1328 515.947 83.3174C515.947 83.5024 515.694 83.5565 515.385 83.4379C515.075 83.3189 514.526 83.3493 514.165 83.5054C513.804 83.6612 513.144 83.7538 512.7 83.7111C512.256 83.6679 511.79 83.797 511.666 83.9974C511.543 84.1977 510.95 84.2844 510.35 84.1899C509.75 84.0953 509.159 84.1786 509.038 84.3752C508.917 84.5719 508.482 84.645 508.073 84.5377C507.663 84.4308 507.03 84.4709 506.666 84.627C506.302 84.7831 505.556 84.8754 505.009 84.8326C504.462 84.7895 503.913 84.9182 503.789 85.1186C503.665 85.3189 503.229 85.3955 502.82 85.2882C502.41 85.1812 501.777 85.2206 501.413 85.3756C501.048 85.5306 500.206 85.6214 499.54 85.5775C498.875 85.5336 498.117 85.6293 497.857 85.7899C497.597 85.9508 496.85 86.0364 496.197 85.9801C495.544 85.9238 494.91 86.0398 494.788 86.2375C494.665 86.4356 493.99 86.5201 493.287 86.4251C492.583 86.3306 491.901 86.4259 491.771 86.6371C491.64 86.8488 491.285 86.9265 490.982 86.8101C490.68 86.6942 490.136 86.7264 489.775 86.8825C489.413 87.0383 488.754 87.131 488.31 87.0882C487.865 87.045 487.401 87.173 487.278 87.3722C487.154 87.5715 486.735 87.651 486.346 87.5493C485.956 87.4477 485.534 87.5321 485.408 87.737C485.281 87.9418 484.859 88.0263 484.47 87.9246C484.08 87.8229 483.653 87.9156 483.52 88.131C483.387 88.3463 483.047 88.4341 482.765 88.3257C482.483 88.2176 482.139 88.3122 482.001 88.5358C481.862 88.7598 481.585 88.8413 481.383 88.7167C481.182 88.5925 480.772 88.6949 480.471 88.9441C480.171 89.1936 479.925 89.272 479.925 89.1182C479.925 88.9644 479.698 89.0266 479.421 89.2567C479.144 89.4863 478.811 89.5674 478.68 89.4368C478.549 89.3058 478.185 89.4124 477.87 89.6735C477.556 89.9347 477.298 90.0225 477.298 89.8687C477.298 89.7148 477.045 89.7992 476.735 90.0563C476.426 90.3133 476.173 90.3977 476.173 90.2439C476.173 90.0901 475.919 90.1745 475.61 90.4315C475.3 90.6886 475.047 90.7741 475.047 90.6218C475.047 90.4698 474.625 90.6218 474.109 90.9598C473.593 91.2979 473.171 91.4818 473.171 91.3685C473.171 91.2555 472.622 91.4533 471.951 91.8086C471.281 92.1636 470.528 92.4897 470.28 92.5328C468.673 92.8124 463.233 96.6398 460.2 99.6248C457.233 102.544 456.535 103.485 455.054 106.567C452.65 111.57 452.027 114.773 452.256 120.942C452.47 126.676 453.045 129.124 455.226 133.583C456.494 136.176 457.427 137.415 460.212 140.201C463.268 143.26 464.099 143.855 467.935 145.734C474.826 149.11 481.529 150.472 491.182 150.461C505.637 150.443 515.043 147.375 527.65 138.569C529.856 137.028 531.797 135.776 531.965 135.786C532.133 135.797 532.321 136.192 532.383 136.664C532.661 138.777 534.128 144.056 534.989 146.04L535.933 148.218H546.203C551.851 148.218 556.473 148.086 556.473 147.926C556.473 147.765 556.226 147.282 555.924 146.851C554.827 145.285 552.657 139.852 552.151 137.405C550.982 131.753 550.764 126.699 550.468 98.4991C550.28 80.606 550.002 68.463 549.737 66.6041C548.08 54.9572 544.85 49.3801 537.057 44.7066C528.683 39.6852 514.129 37.4424 497.958 38.681ZM593.621 41.0484C593.621 41.1358 594.985 44.2199 596.652 47.9017C598.319 51.5839 599.746 54.9017 599.824 55.2747C599.902 55.6473 600.325 56.534 600.764 57.2447C601.203 57.9553 601.461 58.5366 601.338 58.5366C601.214 58.5366 601.54 59.3797 602.063 60.4101C602.585 61.4405 602.985 62.3272 602.952 62.3801C602.918 62.433 603.286 63.2364 603.769 64.1651C604.252 65.0938 604.683 66.0225 604.728 66.2289C604.772 66.4353 612.95 84.6717 622.902 106.754C632.854 128.837 641.072 147.245 641.164 147.663C641.309 148.325 629.547 175.128 620.707 194.278L618.065 200H628.537H639.01L639.245 199.062C639.375 198.546 639.603 198.124 639.753 198.124C639.902 198.124 640.033 197.913 640.043 197.655C640.067 197.045 650.222 174.407 650.681 173.94C650.874 173.744 651.032 173.383 651.032 173.138C651.032 172.893 651.801 171.027 652.741 168.992C653.681 166.956 654.598 164.953 654.779 164.54C654.959 164.128 656.202 161.426 657.541 158.537C664.138 144.294 709.944 41.9565 709.944 41.4604C709.944 40.9599 708.589 40.9017 698.974 40.9887L688.004 41.0882L674.042 73.7336C666.362 91.6886 659.707 107.223 659.251 108.255C655.059 117.749 653.283 121.935 653.283 122.323C653.283 122.531 653.136 122.702 652.956 122.702C652.695 122.702 649.024 114.784 648.955 114.071C648.945 113.968 648.645 113.337 648.288 112.668C647.931 112 647.617 111.324 647.589 111.167C647.562 111.01 647.042 109.784 646.434 108.443C645.826 107.101 645.294 105.835 645.251 105.629C645.209 105.422 644.884 104.705 644.529 104.034C644.174 103.363 643.976 102.814 644.09 102.814C644.204 102.814 644.036 102.31 643.717 101.692C643.398 101.075 643.144 100.483 643.152 100.375C643.16 100.268 642.907 99.6765 642.589 99.0619C642.271 98.4473 642.039 97.9002 642.074 97.8462C642.109 97.7925 641.75 96.9887 641.276 96.06C640.802 95.1313 640.443 94.3276 640.477 94.2739C640.512 94.2199 640.28 93.6728 639.962 93.0582C639.645 92.4435 639.391 91.8525 639.4 91.7448C639.408 91.6371 639.155 91.0462 638.837 90.4315C638.519 89.8169 638.244 89.1854 638.226 89.0281C638.208 88.8713 637.849 88.0675 637.428 87.242C637.007 86.4165 636.69 85.6972 636.725 85.6435C636.76 85.5895 636.528 85.0424 636.21 84.4278C635.892 83.8131 635.639 83.2221 635.647 83.1144C635.656 83.0068 635.402 82.4158 635.084 81.8011C634.767 81.1865 634.492 80.6045 634.475 80.5084C634.458 80.4124 630.611 71.5036 625.926 60.7111L617.407 41.0882L605.514 40.9891C598.973 40.9347 593.621 40.9614 593.621 41.0484ZM244.086 54.7872C256.487 58.1159 264.56 68.1122 267.418 83.6773C268.293 88.4439 268.301 99.6424 267.433 104.695C265.61 115.301 261.276 123.914 255.293 128.818C252.644 130.991 247.308 133.642 243.715 134.571C239.823 135.579 231.279 135.487 227.204 134.395C213.869 130.821 205.633 120.284 202.959 103.377C202.264 98.985 202.376 88.4341 203.166 83.8649C206.562 64.2248 218.805 53.2214 236.585 53.8289C239.576 53.931 242.095 54.2529 244.086 54.7872ZM530.956 98.2176C530.955 116.193 525.489 126.544 512.887 132.436C505.116 136.07 493.477 137.103 485.842 134.837C480.711 133.313 476.555 130.149 474.678 126.336C471.724 120.335 472.451 114.244 476.668 109.669C477.964 108.263 482.364 105.267 482.364 105.791C482.364 105.874 482.786 105.711 483.302 105.429C483.818 105.146 484.465 104.877 484.738 104.831C485.013 104.786 485.519 104.627 485.864 104.48C486.209 104.332 486.745 104.17 487.054 104.119C487.364 104.069 488.776 103.746 490.192 103.403C491.609 103.059 497.189 102.035 502.594 101.128C513.058 99.37 522.618 97.3636 527.444 95.9122C529.066 95.424 530.521 95.0045 530.675 94.9797C530.83 94.9546 530.957 96.412 530.956 98.2176Z" fill="white"/>
</svg>
