<svg width="287" height="140" viewBox="0 0 287 140" fill="none" xmlns="http://www.w3.org/2000/svg">
<path fill-rule="evenodd" clip-rule="evenodd" d="M82.3266 0.967306C80.7236 1.47631 79.0436 2.47531 78.5926 3.18631C78.1416 3.89631 77.7656 9.75431 77.7566 16.2023L77.7416 27.9273L80.5756 29.3923C85.7446 32.0653 93.7076 38.9693 96.4946 43.1943L99.2416 47.3593L99.7416 39.9493L100.242 32.5383L107.076 51.5083C110.834 61.9423 116.635 78.0153 119.965 87.2283L126.021 103.978H135.233H144.445L152.159 82.7283C156.402 71.0413 160.926 58.5533 162.214 54.9783C163.501 51.4033 165.918 44.8783 167.586 40.4783L170.617 32.4783L170.679 48.2533L170.742 64.0283L173.406 65.0413C174.872 65.5983 179.709 65.9243 184.156 65.7663L192.242 65.4783L192.508 33.9783C192.75 5.25231 192.623 2.36831 191.066 1.22831C190.009 0.453306 186.104 -0.0136939 180.801 0.000306149C171.746 0.0233061 165.829 1.84231 162.623 5.58731C161.29 7.14431 146.602 43.2403 138.611 64.6003C137.499 67.5713 136.233 69.7823 135.798 69.5133C135.363 69.2443 129.46 55.6263 122.68 39.2513C115.9 22.8763 109.505 8.23431 108.468 6.71331C107.432 5.19231 105.369 3.31931 103.883 2.55131C100.473 0.788306 86.1906 -0.261694 82.3266 0.967306ZM42.2416 27.9983C30.8786 30.2723 17.5226 38.4213 11.3306 46.8573C4.5226 56.1313 1.0876 66.3123 0.1566 79.9783C-1.4844 104.048 9.8746 125.496 29.3836 135.163C37.4046 139.138 38.3056 139.352 48.8836 139.788C66.4456 140.511 76.1826 137.402 86.2866 127.847C92.8446 121.644 98.4406 110.874 99.5796 102.262C100.032 98.8433 100.104 95.5643 99.7396 94.9753C99.3186 94.2943 95.2866 94.0093 88.6596 94.1913L78.2416 94.4783L75.7276 101.978C72.8406 110.593 71.2556 113.148 66.7196 116.494C57.9856 122.938 40.4436 121.021 33.1536 112.825C18.9906 96.9063 20.3516 65.8833 35.7926 52.6663C47.7316 42.4473 67.5516 46.4293 74.8056 60.5033L77.3696 65.4783L87.9366 65.7613C99.8596 66.0803 100.353 65.7803 98.5686 59.3033C92.2826 36.4773 67.8146 22.8793 42.2416 27.9983ZM222.322 28.8263C219.453 29.4673 219.18 30.1493 206.789 67.6783C199.851 88.6883 193.853 106.2 193.459 106.595C193.065 106.989 192.742 98.9113 192.742 88.6453V69.9783H182.242H171.742V102.856C171.742 132.313 171.915 135.876 173.407 137.106C175.84 139.111 193.255 138.798 197.361 136.675C201.778 134.391 203.264 131.632 209.224 114.637C217.847 90.0493 227.702 62.6853 228.064 62.3223C228.25 62.1373 234.215 77.5703 241.322 96.6173C249.933 119.698 255.095 132.171 256.8 134.013C260.053 137.529 265.266 138.965 274.801 138.972C287.065 138.981 286.189 141.6 286.557 103.844C286.922 66.3783 287.685 68.9703 276.301 68.9923C263.843 69.0163 264.828 67.3983 264.514 88.3393L264.242 106.478L251.162 67.4783L238.083 28.4783L231.662 28.3263C228.131 28.2423 223.928 28.4673 222.322 28.8263Z" fill="white"/>
</svg>
