<svg width="865" height="80" viewBox="0 0 865 80" fill="none" xmlns="http://www.w3.org/2000/svg">
<path fill-rule="evenodd" clip-rule="evenodd" d="M10.4045 1.50299C0.972548 4.83999 -0.376454 10.228 0.0755459 42.789C0.592546 80.068 -0.665459 79.204 52.4575 78.764L84.4045 78.5L84.7006 71.75L84.9956 65H56.4855C28.8515 65 27.9416 64.938 26.8876 62.969C26.1686 61.625 25.9025 53.151 26.1025 37.931C26.3535 18.798 26.6575 14.765 27.9045 13.977C28.7505 13.444 41.0745 13.024 56.1545 13.015L82.9045 13V6.5V0L48.6545 0.0440063C21.7625 0.0780063 13.5455 0.391991 10.4045 1.50299ZM93.9045 39V78H106.905H119.905V61V44H140.905H161.905V61V78H174.905H187.905V39V0H174.905H161.905V15.5V31H140.905H119.905V15.5V0H106.905H93.9045V39ZM211.589 1.444C202.008 4.873 201.405 7.155 201.405 40C201.405 80.543 199.617 79.259 255.405 78.777L287.405 78.5V72V65.5L257.905 65L228.405 64.5L228.12 54.266L227.835 44.032L255.12 43.766L282.405 43.5V37V30.5L255.155 30.234L227.905 29.968V22.003C227.905 14.572 228.056 14.001 230.155 13.489C231.393 13.187 245.645 13.066 261.827 13.22L291.248 13.5L304.177 43.754C319.867 80.468 317.958 78.343 335.715 78.854C351.184 79.3 356.034 78.599 359.169 75.463C360.627 74.005 367.71 58.565 376.758 37.12C385.089 17.374 391.905 0.944009 391.905 0.609009C391.905 0.274009 387.634 0 382.413 0C374.217 0 372.762 0.255993 371.752 1.87399C371.108 2.90499 365.131 17.417 358.469 34.124C347.189 62.415 346.189 64.5 343.904 64.5C341.614 64.5 340.607 62.367 328.797 32.5L316.143 0.5L265.774 0.289001C225.315 0.120001 214.654 0.347 211.589 1.444ZM395.572 0.666992C395.205 1.03299 394.905 18.583 394.905 39.667V78H407.905H420.905V45.479V12.959L441.155 13.229L461.405 13.5L462.293 18.089C462.781 20.614 462.867 24.765 462.485 27.316L461.79 31.952L445.097 32.226L428.405 32.5L428.146 38C428.003 41.025 428.228 43.964 428.646 44.532C429.063 45.099 437.714 52.974 447.869 62.032L466.333 78.5L484.119 78.813C493.901 78.985 501.884 78.76 501.859 78.313C501.834 77.866 492.068 70.075 480.157 61L458.5 44.5L469.161 43.892C484.8 43.001 487.848 40.155 488.709 25.641C489.586 10.842 485.932 2.954 477.267 0.944C472.835 -0.0839998 396.581 -0.343008 395.572 0.666992ZM507.963 2.216C504.937 3.772 502.865 5.775 501.463 8.5C499.535 12.247 499.405 14.209 499.405 39.5C499.405 80.81 497.642 79.514 552.913 78.845C586.012 78.444 587.587 78.085 591.687 70C593.924 65.591 593.964 64.94 593.687 37.821C593.421 11.663 593.292 9.991 591.343 7.383C590.209 5.865 588.04 3.69601 586.522 2.56201C583.873 0.583012 582.325 0.489003 548.083 0.216003C512.62 -0.0659966 512.378 -0.0539966 507.963 2.216ZM607.572 0.666992C607.205 1.03299 606.905 18.583 606.905 39.667V78H647.905H688.905V71.5V65H661.405H633.905V32.5V0H621.072C614.013 0 607.938 0.299992 607.572 0.666992ZM702.819 0.955994C697.969 2.42499 695.01 5.15699 693.207 9.83099C691.636 13.901 691.406 17.838 691.411 40.5C691.417 64.666 691.558 66.74 693.411 69.895C696.207 74.657 699.641 76.921 705.464 77.841C708.223 78.277 725.651 78.433 744.193 78.187L777.905 77.74V71.385V65.03L748.155 64.765L718.405 64.5L718.12 54.266L717.835 44.032L745.12 43.766L772.405 43.5V37V30.5L745.155 30.234L717.905 29.968V22.684C717.905 18.352 718.391 14.914 719.105 14.2C720.002 13.303 731.483 13 764.605 13H808.905V45.5V78H821.905H834.905V45.5V13H849.905H864.905V6.5V0L785.155 0.0859985C741.293 0.132999 704.241 0.524994 702.819 0.955994ZM566.801 14.374C567.603 15.341 567.862 22.981 567.673 40.124L567.405 64.5H546.905H526.405L526.137 39.57C525.93 20.293 526.157 14.458 527.137 13.835C527.834 13.393 536.787 13.024 547.033 13.015C561.627 13.003 565.907 13.298 566.801 14.374Z" fill="white"/>
</svg>
