<svg width="338" height="54" viewBox="0 0 338 54" fill="none" xmlns="http://www.w3.org/2000/svg">
<path fill-rule="evenodd" clip-rule="evenodd" d="M125.078 4.64008H125.954C127.602 4.64008 127.499 3.7484 127.499 17.9808C127.499 27.514 127.44 30.6426 127.257 30.8257C127.123 30.9589 126.579 31.0678 126.046 31.0678H125.078V35.7078H154.935V44.0392L150.296 48.6834C147.744 51.2378 145.679 53.3484 145.706 53.3736C145.734 53.3991 146.618 53.3716 147.673 53.3131L149.589 53.2066L152.12 50.7111C153.513 49.3385 154.715 48.2156 154.793 48.2156C154.871 48.2156 154.935 49.3504 154.935 50.7373V53.2591H157.558V50.6197C157.558 48.745 157.624 48.0024 157.786 48.0564C157.912 48.0982 159.16 49.2761 160.56 50.6738L163.106 53.2153L167.132 53.4562L157.558 43.8752V35.7078H187.617V31.0678H186.716C186.032 31.0678 185.765 30.974 185.606 30.6777C185.469 30.4206 185.398 26.0213 185.398 17.7977C185.398 5.95401 185.417 5.29049 185.767 4.97396C185.97 4.79038 186.469 4.64008 186.876 4.64008H187.617V9.85051e-05H125.078V4.64008ZM0 35.1026H4.84172V10.4516L6.74392 10.5214C8.26543 10.5774 8.76009 10.6739 9.21521 11.0037C9.72501 11.3731 10.774 13.2309 11.7323 15.4621C12.5738 17.4206 15.6478 24.2751 16.3584 25.776C16.7925 26.6935 17.1478 27.4799 17.1478 27.5233C17.1478 27.5669 17.472 28.3139 17.8682 29.1838C18.6929 30.9944 18.7114 31.0353 19.6522 33.1356L20.3526 34.6991H26.384L26.689 33.9426C26.9632 33.2631 27.3517 32.3918 28.6902 29.4539C28.9176 28.9546 29.8081 26.9574 30.6687 25.0157C31.5295 23.0739 32.4627 20.9859 32.7428 20.3757C34.2982 16.9865 34.699 16.0964 34.699 16.0323C34.699 15.9933 35.049 15.2069 35.4767 14.285C35.9044 13.3631 36.3139 12.4205 36.3868 12.1903C36.4596 11.9602 36.7933 11.5095 37.1284 11.1885C37.7009 10.64 37.857 10.6002 39.7485 10.5244L41.7599 10.4435V35.1026H46.6016V0.201837H36.9958L36.6196 1.05923C36.4126 1.53069 35.9068 2.64287 35.4957 3.53052C35.0845 4.41817 34.0644 6.64234 33.2288 8.47312C32.3929 10.3039 31.305 12.6642 30.8109 13.7183C30.3167 14.7724 29.7266 16.0434 29.4994 16.5427C29.2721 17.042 28.7046 18.2675 28.2383 19.2661C27.7719 20.2647 27.087 21.7427 26.7162 22.5502C26.1235 23.8409 25.9369 24.0665 25.1756 24.4119C24.0424 24.9263 22.5471 24.9245 21.4791 24.4076C20.5878 23.9761 20.7337 24.2234 18.4484 19.2661C18.0905 18.4894 17.3336 16.8711 16.7665 15.6697C16.1996 14.4684 15.7356 13.4536 15.7356 13.4149C15.7356 13.3326 14.693 11.0661 13.2919 8.10272C12.7497 6.95584 12.306 5.99133 12.306 5.95925C12.306 5.92718 11.7969 4.82548 11.1745 3.51095C10.5521 2.19663 9.96427 0.914377 9.86824 0.661599L9.69354 0.201837H0V35.1026ZM67.9568 1.16009C66.5196 4.45348 66.1505 5.28908 65.5719 6.5566C64.794 8.26048 64.8843 8.05794 62.3336 13.8192C61.2038 16.3712 60.0737 18.9131 59.8221 19.4679C59.5708 20.0226 59.1663 20.9305 58.9236 21.4852C58.3137 22.8789 58.2195 23.0887 57.4055 24.8688C57.0111 25.731 56.6885 26.4734 56.6885 26.5184C56.6885 26.5634 56.3815 27.2649 56.0062 28.0775C55.6308 28.8901 55.0942 30.0995 54.8136 30.7652C54.5327 31.431 54.0227 32.5805 53.6802 33.3196C53.3376 34.0588 53.0572 34.7623 53.0572 34.8831C53.0572 35.029 53.8624 35.1026 55.4583 35.1026H57.8594L58.0539 34.5478C58.1608 34.2428 58.7705 32.8349 59.4088 31.4193L60.5692 28.8455L72.2746 28.8975C82.435 28.9427 84.0021 28.9895 84.1461 29.2522C84.3083 29.5481 84.9926 31.0709 85.7778 32.8831C85.9941 33.3822 86.311 34.0856 86.4823 34.4465L86.7936 35.1026H91.7809L91.6066 34.6487C91.4053 34.125 90.5287 32.1447 89.9766 30.967C89.3566 29.644 88.3316 27.3647 88.1621 26.9322C88.0754 26.7103 87.123 24.5315 86.0457 22.0905C84.9686 19.6494 83.9091 17.2437 83.6912 16.7444C83.4733 16.2451 83.1245 15.4734 82.9163 15.0296C82.2786 13.6709 81.3006 11.475 81.3006 11.4022C81.3006 11.3644 80.9748 10.6218 80.5768 9.75193C79.7628 7.97341 79.6516 7.72467 78.4747 5.04356C78.0119 3.98948 77.4726 2.76392 77.2763 2.32009C77.0802 1.87627 76.7938 1.2182 76.6401 0.857487L76.3604 0.201837H68.375L67.9568 1.16009ZM97.8432 8.47312H116.019L115.959 15.3827C115.9 22.1135 115.887 22.3148 115.442 23.1621C114.651 24.6673 113.103 25.68 110.553 26.3617C108.635 26.8741 102.853 26.8698 100.365 26.3542C98.8103 26.032 96.1736 25.2333 94.9684 24.7195C94.6402 24.5795 94.6154 24.8085 94.6154 27.977V31.385L95.7348 32.1223C96.3505 32.5278 97.4627 33.1435 98.2061 33.4905C98.9497 33.8377 99.6951 34.1934 99.863 34.2813C100.982 34.8668 105.157 35.6983 107.007 35.7042C108.418 35.7084 111.288 35.214 112.57 34.7457C115.61 33.6349 118.356 30.8911 119.481 27.84C120.384 25.3933 120.437 24.5103 120.438 12.054L120.438 0.201837H97.8432V8.47312ZM193.669 35.1026H198.309V23.6035H207.111L207.778 24.36C208.358 25.0175 212.481 29.3593 216.675 33.7284L217.994 35.1026H224.633L213.021 23.4849L214.993 23.0094C219.997 21.803 222.899 19.0519 223.805 14.655C224.462 11.4659 224.08 8.72831 222.553 5.67984C222.008 4.59146 219.857 2.72559 218.208 1.91056C215.136 0.392682 214.76 0.349913 203.605 0.258929L193.669 0.177628V35.1026ZM180.309 4.95419L180.758 5.2681V17.7991C180.758 29.1761 180.727 30.364 180.424 30.6988C180.104 31.0523 179.095 31.0678 156.422 31.0678H132.753L132.442 30.5919C132.167 30.1733 132.136 28.6201 132.185 17.6893C132.238 5.53177 132.248 5.25599 132.643 4.95782C132.998 4.68991 135.891 4.65219 156.454 4.64654C177.319 4.64069 179.91 4.67418 180.309 4.95419ZM214.4 8.57983C217.99 9.14349 219.693 10.218 219.693 11.9196C219.693 13.6273 218.739 14.4032 215.678 15.1841C214.332 15.5277 213.184 15.5874 206.227 15.6764L198.309 15.7777V8.27138H205.372C210.718 8.27138 212.913 8.34642 214.4 8.57983ZM75.148 10.7403C75.4813 10.9129 75.9162 11.2339 76.1147 11.4532C76.4179 11.7883 77.5878 14.306 79.5108 18.7618C79.7262 19.2611 79.9901 19.8272 80.0972 20.0198C80.6464 21.0081 80.8697 20.9809 72.1988 20.9809C64.5844 20.9809 64.1123 20.9601 64.2142 20.6279C64.2739 20.4336 65.1351 18.4138 66.1283 16.1392C68.0641 11.705 68.6133 10.8946 69.9343 10.5232C71.0418 10.2119 74.3991 10.3515 75.148 10.7403Z" fill="white"/>
<path fill-rule="evenodd" clip-rule="evenodd" d="M246.525 35.3042H250.963V22.1912H272.952V14.7269H250.963V8.27128H274.566V0H246.525V35.3042ZM281.425 8.27128H286.267V27.033H281.425V35.3042H295.345V27.033H290.504V8.27128H295.345V0H281.425V8.27128ZM301.801 0.115596C301.801 0.179143 302.595 1.24473 303.566 2.4834C305.911 5.47498 305.862 5.41264 306.447 6.13144C306.727 6.47621 307.542 7.52989 308.257 8.47302C309.404 9.98545 310.613 11.5285 311.657 12.8154C312.69 14.088 314.511 16.5282 314.511 16.64C314.511 16.761 308.123 24.9914 307.854 25.2173C307.788 25.2728 307.286 25.9083 306.74 26.6295C305.734 27.9567 302.848 31.6376 302.232 32.379C302.048 32.6009 301.462 33.35 300.929 34.0434L299.962 35.3042L305.937 35.3006L306.368 34.7476C306.606 34.4434 307.537 33.2415 308.439 32.0764C309.341 30.9114 310.191 29.8184 310.328 29.6473C310.465 29.4764 311.029 28.7502 311.581 28.0334C312.134 27.3168 312.792 26.5044 313.044 26.228C313.296 25.9518 313.502 25.6638 313.502 25.5879C313.502 25.269 314.877 24.1118 315.719 23.722C316.467 23.3756 317.023 23.3008 318.848 23.3008C322.284 23.3008 322.919 23.6068 324.911 26.226C325.46 26.9472 325.959 27.5827 326.02 27.6382C326.082 27.6937 327.031 28.9192 328.131 30.3616C329.23 31.8041 330.179 33.0296 330.241 33.0851C330.302 33.1406 330.71 33.6627 331.148 34.2451L331.943 35.3042H335.04C337.464 35.3042 338.105 35.2494 337.987 35.0521C337.756 34.6671 334.855 30.894 332.364 27.739C331.138 26.1857 329.687 24.3246 329.141 23.6034C328.594 22.8822 328.097 22.2467 328.036 22.1912C327.976 22.1358 327.476 21.5003 326.925 20.7791C326.375 20.0578 325.875 19.4224 325.816 19.3669C325.368 18.9513 323.79 16.7239 323.79 16.5071C323.79 16.358 323.995 16.009 324.244 15.7318C324.494 15.4544 325.423 14.3206 326.309 13.2121C327.195 12.1035 327.97 11.1511 328.031 11.0956C328.092 11.0401 328.502 10.5408 328.942 9.98606C329.382 9.43127 329.787 8.93197 329.843 8.87649C329.898 8.82102 330.666 7.8678 331.549 6.75824C332.432 5.64868 333.431 4.41989 333.768 4.02751C334.106 3.63512 334.699 2.91351 335.088 2.42348C335.476 1.93366 336.043 1.24412 336.349 0.89108C336.654 0.53824 336.903 0.190845 336.903 0.119228C336.903 0.0478127 335.567 0.0143249 333.934 0.0449891L330.964 0.100869L329.681 1.71478C328.975 2.60243 328.246 3.51025 328.06 3.73216C327.874 3.95407 326.781 5.33598 325.631 6.80323C324.481 8.27027 323.23 9.65359 322.851 9.87692C321.93 10.4204 319.764 10.7448 318.147 10.5816C316.178 10.3827 315.308 9.86421 313.957 8.08467C312.334 5.94725 309.997 2.94498 309.863 2.82434C309.801 2.76886 309.53 2.40573 309.261 2.01738C308.992 1.62904 308.566 1.08535 308.313 0.80897C308.06 0.53279 307.853 0.237647 307.853 0.15332C307.853 0.0689935 306.491 0 304.827 0C303.163 0 301.801 0.0520481 301.801 0.115596Z" fill="white"/>
</svg>
