<svg width="921" height="485" viewBox="0 0 921 485" fill="none" xmlns="http://www.w3.org/2000/svg">
<path fill-rule="evenodd" clip-rule="evenodd" d="M863.279 0.311808C860.196 0.731808 783.325 22.5788 645.278 62.2668C605.984 73.5648 451.743 117.832 416.605 127.898L402.432 131.957L348.105 116.382C318.225 107.816 251.928 88.7758 200.778 74.0698C98.2032 44.5808 97.9462 44.5228 84.6782 48.1148C63.6972 53.7938 48.5072 75.6938 50.6772 97.1378C51.0352 100.677 56.0512 117.751 62.8692 138.638C74.7142 174.928 84.6551 205.558 90.9371 225.125C93.6231 233.494 94.4852 237.919 94.5372 243.625C94.6602 257.182 95.6582 255.162 49.1302 335.625C8.44616 405.982 3.69215 414.44 1.91515 419.625C-0.495845 426.658 -0.653846 439.146 1.57415 446.672C3.51115 453.217 9.39115 462.624 14.8162 467.858C23.5062 476.243 38.7112 481.496 50.4742 480.177C53.6062 479.825 81.0562 472.409 111.474 463.695C187.244 441.99 388.444 384.311 406.485 379.124L421.193 374.895L500.985 397.762C675.707 447.835 729.302 463.222 764.278 473.354C796.559 482.705 801.889 483.98 810.391 484.387C826.158 485.141 837.247 480.863 848.375 469.735C858.874 459.234 863.356 448.609 863.395 434.125C863.424 423.284 867.768 437.807 825.405 307.125C813.865 271.528 812.815 267.3 813.622 259.688C814.816 248.422 814.015 249.938 868.805 155.125C889.594 119.15 911.761 80.6198 914.09 76.4118C927.349 52.4518 919.783 23.2158 896.278 7.58481C888.214 2.22181 873.329 -1.05919 863.279 0.311808ZM882.55 23.0818C892.741 27.3738 900.276 39.1328 900.277 50.7488C900.278 59.5178 899.047 62.6578 888.502 80.7728C881.086 93.5118 834.323 174.651 807.613 221.125C799.03 236.059 796.868 241.095 794.864 250.833C792.181 263.869 792.964 271.643 798.768 289.625C812.849 333.249 825.877 373.483 833.868 398.026C842.169 423.521 843.277 427.764 843.268 434.026C843.251 446.557 837.091 456.32 825.778 461.746C815.723 466.568 811.808 466.096 775.738 455.712C758.71 450.81 707.653 436.153 662.278 423.141C616.903 410.129 544.602 389.39 501.608 377.054C458.615 364.718 422.473 354.625 421.294 354.625C420.115 354.625 379.016 366.135 329.964 380.203C38.2652 463.86 49.1462 460.821 43.7362 460.154C33.9392 458.947 24.2432 451.11 21.2222 441.955C20.5842 440.023 20.2342 435.418 20.4422 431.722C20.8682 424.192 18.3202 429.121 51.7702 371.125C98.7332 289.701 108.855 271.718 110.908 266.063C114.228 256.916 115.595 245.089 114.341 236.355C113.171 228.209 113.28 228.585 102.971 197.125C69.8082 95.9238 70.8852 99.4348 70.8862 92.5508C70.8872 78.0158 82.4862 66.6278 97.2782 66.6398C99.7532 66.6408 108.753 68.6228 117.278 71.0428C136.202 76.4158 270.392 114.884 346.518 136.76L402.259 152.778L453.018 138.227C480.936 130.225 541.353 112.906 587.278 99.7408C633.203 86.5758 713.979 63.4228 766.781 48.2898C819.582 33.1568 864.582 20.6288 866.781 20.4498C871.788 20.0428 877.662 21.0228 882.55 23.0818ZM349.809 177.67C324.425 181.657 297.976 200.038 283.898 223.476C281.214 227.944 277.396 236.218 275.414 241.863C271.875 251.938 271.809 252.408 271.794 267.625C271.779 281.964 271.979 283.674 274.457 290.46C281.302 309.199 295.212 323.141 313.595 329.689C323.091 333.071 344.005 333.592 355.377 330.728C397.451 320.135 429.143 279.192 427.026 238.166C425.493 208.461 407.626 186.423 378.778 178.654C373.077 177.119 356.832 176.567 349.809 177.67ZM728.278 177.788C719.154 179.075 703.866 184.498 694.673 189.71C685.01 195.187 671.19 208.456 665.077 218.125C654.927 234.18 650.148 250.507 650.005 269.625C649.938 278.634 650.401 283.94 651.662 288.625C657.09 308.793 669.824 322.694 688.887 329.264C695.618 331.584 698.835 332.045 710.778 332.405C722.602 332.761 726.177 332.495 733.778 330.69C743.711 328.332 754.536 323.29 760.953 318.034L765.127 314.615L761.121 302.37C758.917 295.635 756.922 289.514 756.686 288.768C756.39 287.828 754.99 288.556 752.141 291.13C742.238 300.076 725.788 303.721 711.738 300.081C696.68 296.18 687.782 284.627 686.639 267.49C685.201 245.953 695.551 225.594 713.191 215.255C721.538 210.363 728.115 208.625 738.278 208.625C748.357 208.625 755.346 210.443 760.994 214.534L765.037 217.463L771.152 206.794C774.515 200.926 778.256 194.439 779.467 192.378C781.64 188.678 781.644 188.611 779.723 187.065C775.682 183.811 765.348 179.715 757.351 178.198C748.343 176.49 738.477 176.35 728.278 177.788ZM189.278 180.751C176.696 182.791 164.931 191.73 159.458 203.407C157.111 208.414 156.778 210.368 156.778 219.125C156.778 228.253 157.027 229.574 159.631 234.273C164.574 243.19 164.675 243.265 211.94 273.008C223.292 280.151 224.733 281.694 224.733 286.708C224.733 289.8 224.045 291.32 221.487 293.878L218.242 297.125L177.154 297.625L136.066 298.125L127.181 313.625L118.296 329.125L168.999 329.384C213.007 329.609 220.428 329.433 225.197 328.046C233.829 325.537 239.768 322.075 246.094 315.867C264.507 297.794 265.357 268.857 247.943 252.953C245.035 250.298 231.559 241.375 217.997 233.125C182.534 211.554 182.505 211.63 226.325 211.336L257.722 211.125L266.475 196.125C271.29 187.875 275.24 180.787 275.253 180.375C275.288 179.319 195.967 179.666 189.278 180.751ZM453.754 180.875C453.236 182.281 429.278 326.798 429.278 328.521C429.278 329.285 434.749 329.625 447.05 329.625H464.822L472.097 285.272C476.098 260.878 479.705 239.675 480.112 238.153C480.787 235.629 481.325 236.383 486.247 246.756C489.214 253.009 496.336 267.8 502.072 279.625C507.809 291.45 514.493 305.379 516.926 310.578C522.223 321.895 525.065 325.808 530.608 329.413C534.476 331.928 535.545 332.125 545.348 332.125C555.207 332.125 556.197 331.94 560.083 329.37C564.428 326.498 568.384 320.084 569.797 313.625C571.766 304.623 591.988 181.035 591.6 180.375C591.358 179.963 583.527 179.625 574.198 179.625C557.544 179.625 557.219 179.666 556.324 181.875C555.822 183.113 552.215 203.925 548.307 228.125C544.399 252.325 540.863 272.963 540.45 273.988C539.869 275.426 538.47 273.262 534.306 264.488C529.366 254.077 524.731 244.449 503.799 201.125C499.813 192.875 495.593 185.134 494.421 183.924C491.12 180.513 486.033 179.637 469.497 179.631C458.18 179.626 454.096 179.949 453.754 180.875ZM611.755 180.875C611.23 182.301 587.278 326.793 587.278 328.533C587.278 329.351 592.396 329.594 605.506 329.398L623.734 329.125L635.963 255.625C642.689 215.2 648 181.563 647.766 180.875C647.448 179.939 642.935 179.625 629.778 179.625C616.64 179.625 612.099 179.94 611.755 180.875ZM370.278 211.083C382.908 217.662 389.512 229.713 389.482 246.125C389.426 275.855 364.94 302.932 339.444 301.455C318.061 300.216 304.699 279.221 309.561 254.496C313.58 234.053 327.187 216.967 344.596 210.504C351.289 208.02 364.989 208.329 370.278 211.083Z" fill="white"/>
</svg>
