<svg width="620" height="53" viewBox="0 0 620 53" fill="none" xmlns="http://www.w3.org/2000/svg">
<path fill-rule="evenodd" clip-rule="evenodd" d="M5.25 3.509C0.227 6.9 0 7.24701 0 11.527C0 15.737 0.162 16.001 2.75 16.014C4.263 16.021 6.502 16.296 7.726 16.624C9.901 17.207 9.959 17.611 10.226 33.86L10.5 50.5L15.744 50.802C20.246 51.061 21.626 50.666 25.494 48.004L30 44.904V32.056V19.208L35 16C39.75 12.952 40 12.572 40 8.41501C40 3.32301 40.626 3.59999 25.5 1.98999C20 1.40499 14.375 0.709007 13 0.445007C11.25 0.108007 8.926 1.027 5.25 3.509ZM58.75 3.13L54 6.237V27.488V48.74L58.75 49.304C62.973 49.806 64.083 49.486 68.75 46.424L74 42.98V46.929C74 50.827 74.056 50.886 78.386 51.535C83.043 52.234 85.118 51.527 90.75 47.324L94 44.898V24.043V3.18799L88.969 2.496C84.431 1.872 83.475 2.106 79.219 4.883L74.5 7.96201L74.169 4.73999C73.765 0.81099 72.662 0.0320081 67.5 0.0270081C64.707 0.0250081 62.067 0.961005 58.75 3.13ZM113 2.98999C110.525 4.62999 108.207 6.99099 107.85 8.23599C106.815 11.837 106.891 47.814 107.934 48.459C108.447 48.776 114.104 49.686 120.504 50.48L132.139 51.923L136.988 48.715C141.213 45.919 141.893 44.991 142.269 41.503C142.507 39.301 142.399 37.153 142.03 36.729C141.66 36.305 138.259 35.669 134.471 35.315C130.683 34.961 128.267 34.408 129.101 34.086C129.935 33.764 132.728 32.15 135.307 30.5C139.678 27.704 139.997 27.213 139.998 23.279C140 19.408 139.745 18.991 136.939 18.264L133.878 17.471L138.439 14.256C142.55 11.359 143 10.649 143 7.06601C143 2.56801 144.068 3 128.091 1.034C117.173 -0.309003 118.174 -0.43801 113 2.98999ZM300.693 4.552C290.892 11.127 290.004 12.997 290.026 27C290.04 36.141 290.434 39.36 291.947 42.691C294.407 48.11 300.199 51.29 306.873 50.885C309.418 50.731 312.914 50.943 314.643 51.358C317.268 51.988 318.71 51.521 323.393 48.525L329 44.939V33.597V22.256L324.89 21.598L320.781 20.941L324.905 17.954C328.491 15.356 328.945 14.609 328.379 12.233C326.562 4.601 320.534 0 312.353 0C308.228 0 306.435 0.700002 300.693 4.552ZM380.768 3.314L376.037 6.5L376.018 27.75C376.004 44.357 376.28 49 377.28 49C377.984 49 384.112 49.687 390.899 50.528L403.239 52.055L408.119 48.923C412.851 45.887 413 45.645 413 40.975V36.159L406.25 35.499C395.009 34.4 396 36.136 396 17.549C396 1.47401 395.967 1.224 393.75 0.630005C389.207 -0.586995 385.389 0.201995 380.768 3.314ZM444 1.267C437.348 4.904 430.149 10.354 428.895 12.701C426.668 16.868 426.962 39.515 429.299 43.794C431.904 48.566 436.46 50.992 442.825 50.996C447.431 50.999 449.076 50.401 455.012 46.561C464.971 40.119 465.5 39.008 465.5 24.544C465.5 10.932 463.874 6.00099 458.316 2.75299C454.132 0.307991 447.09 -0.423002 444 1.267ZM489.5 4.77701C479.695 11.392 478.817 13.418 479.209 28.5C479.463 38.285 479.884 41.104 481.489 43.771C484.076 48.073 490.708 51.269 496.252 50.887C498.588 50.725 501.994 50.953 503.82 51.392C506.678 52.079 507.897 51.688 512.57 48.585L518 44.98V33.618V22.256L513.767 21.579L509.534 20.902L513.76 18.201C516.084 16.715 517.989 14.808 517.993 13.962C517.997 13.116 516.987 10.449 515.75 8.03601C512.95 2.57601 508.355 -0.00999194 501.516 0.0270081C497.213 0.0500081 495.504 0.726008 489.5 4.77701ZM536.138 3.59299L530.802 7.186L531.151 23.843C531.466 38.876 531.713 40.841 533.681 44C536.912 49.186 541.379 51.438 548.5 51.472C554.036 51.498 555.051 51.128 561.616 46.693C565.529 44.049 569.242 40.765 569.866 39.396C570.568 37.854 571 30.497 571 20.083V3.26001L566.25 2.70401C562.169 2.22601 560.866 2.55699 557 5.05399L552.5 7.95999L552.197 4.60199C551.924 1.58399 551.52 1.183 548.197 0.632996C542.331 -0.337004 541.767 -0.198013 536.138 3.59299ZM589.768 3.314L585.037 6.5L585.018 27.75C585.008 39.438 585.337 49.004 585.75 49.009C586.163 49.014 591.675 49.668 598 50.463L609.5 51.908L614.75 48.444C619.751 45.144 620 44.772 620 40.621C620 36.36 619.915 36.248 616.25 35.642C614.188 35.301 610.939 35.017 609.031 35.011L605.563 35L611.332 31.391L617.101 27.783L616.8 23.147C616.53 18.969 616.227 18.46 613.739 18.005C610.985 17.501 610.989 17.493 615.489 14.658C619.713 11.997 620 11.539 620 7.453C620 2.484 620.902 2.873 605.026 1C594.297 -0.266 595.314 -0.420005 589.768 3.314ZM208.75 4.06299L204 7.237V28.529V49.82L212.524 50.53C223.422 51.438 225.753 50.921 233.028 45.981C241.961 39.914 242.511 38.692 242.441 25.041C242.347 6.50798 239.09 2.99299 220.607 1.47299C213.833 0.915992 213.277 1.03699 208.75 4.06299ZM260.768 4.314L256.037 7.5L256.018 28.621L256 49.742L260.966 50.401C265.458 50.997 266.412 50.747 270.948 47.78L275.964 44.5L275.982 23.367C276 2.28901 275.994 2.232 273.75 1.63C269.207 0.413005 265.389 1.202 260.768 4.314ZM346.75 4.535L342 8.01901V28.881V49.742L346.966 50.401C351.458 50.997 352.412 50.747 356.948 47.78L361.964 44.5L361.982 23.367C362 2.28901 361.994 2.232 359.75 1.63C354.882 0.326005 351.438 1.095 346.75 4.535ZM18 10.308L28.5 11.5L28.803 14.608L29.106 17.717L24.053 17.231L19 16.746V33.373C19 51.478 19.185 50.96 13.274 49.376C11.099 48.793 11.041 48.389 10.774 32.14L10.5 15.5L6 15C1.793 14.533 1.48 14.292 1.191 11.303C0.891002 8.20501 0.983002 8.12199 4.191 8.61099C6.011 8.88799 12.225 9.65201 18 10.308ZM61.418 8.60699C62.66 9.08399 63 10.778 63 16.49C63 24.605 63.342 24.958 71.25 24.986L75 25V17.455V9.909L78.75 10.587C80.813 10.96 82.5 11.318 82.5 11.383C82.5 11.447 82.37 20.295 82.21 31.045L81.921 50.589L78.46 50.185L75 49.781V41.021V32.262L71.25 31.642C62.74 30.235 63 29.986 63 39.56V48.121L59.25 47.81L55.5 47.5L55.229 27.75L54.958 8H57.397C58.739 8 60.548 8.27299 61.418 8.60699ZM124 9.80499C130.48 10.498 130.501 10.51 130.82 13.845C131.125 17.026 131.002 17.164 128.32 16.659C126.769 16.367 123.363 15.847 120.75 15.503L116 14.877V19.814C116 24.542 116.131 24.776 119.125 25.375C120.844 25.719 123.544 26 125.125 26C127.729 26 128 26.321 128 29.406C128 32.116 127.642 32.742 126.25 32.466C125.287 32.275 122.588 31.91 120.25 31.655L116 31.19V36.488C116 42.203 116.729 43 121.957 43C123.493 43 126.156 43.281 127.875 43.625C130.505 44.151 131 44.705 131 47.125C131 50.471 131.337 50.424 118.442 48.84L109 47.679V27.778V7.87701L113.25 8.49301C115.588 8.83201 120.425 9.42199 124 9.80499ZM309.282 9.362C313.456 11.129 315.821 13.856 316.613 17.816C317.246 20.979 317.228 20.996 313.875 20.341C312.019 19.979 310.331 19.248 310.125 18.716C309.247 16.454 305.819 14 303.535 14C299.87 14 299 16.727 299 28.212C299 39.959 300.204 43 304.857 43C308.483 43 310 41.319 310 37.3C310 34.447 309.662 34 307.5 34C305.5 34 305 33.5 305 31.5C305 29.275 305.413 29.002 308.75 29.014C316.99 29.044 317 29.057 317 40.117C317 49.333 316.865 50 315 50C313.9 50 313 49.359 313 48.577C313 47.357 312.576 47.365 310.041 48.63C303.872 51.707 294.425 47.353 292.353 40.478C290.855 35.51 290.668 20.734 292.04 15.795C293.988 8.78201 301.388 6.021 309.282 9.362ZM383.418 8.60699C384.771 9.12599 385 11.574 385 25.528V41.841L387.75 42.358C389.262 42.643 393.087 43.161 396.25 43.51C401.796 44.121 402 44.248 402 47.072C402 50.503 401.285 50.576 386.5 48.664L377.5 47.5L377.229 27.75L376.958 8H379.397C380.739 8 382.548 8.27299 383.418 8.60699ZM448 10.827C452.743 14.271 453.997 18.445 453.998 30.8C454 43.607 452.896 46.972 448.028 48.988C444.382 50.499 437.91 49.826 434.483 47.581C429.922 44.592 428.651 40.488 428.572 28.5C428.491 16.192 429.716 11.8 433.888 9.444C437.178 7.585 444.528 8.306 448 10.827ZM498.961 9.48001C502.776 11.453 506 15.695 506 18.742C506 20.585 505.598 21.06 504.418 20.607C503.548 20.273 501.973 20 500.918 20C499.863 20 499 19.473 499 18.829C499 16.788 495.776 14 493.416 14C488.935 14 487.999 16.31 488.015 27.321C488.032 39.548 489.104 42.361 493.918 42.824C497.812 43.199 498.963 41.933 498.985 37.25C498.997 34.662 498.593 34 497 34C495.533 34 495 33.333 495 31.5C495 29.259 495.405 29 498.918 29C505.937 29 506 29.099 506 40.107C506 48.234 505.732 50 504.5 50C503.675 50 503 49.325 503 48.5C503 46.649 503.012 46.649 499.145 48.578C495.75 50.271 491.677 49.872 486.767 47.363C481.97 44.912 481 41.482 481 26.973V13.846L483.923 10.923C486.311 8.535 487.692 8 491.473 8C494.017 8 497.387 8.66601 498.961 9.48001ZM537.681 8.612C539.784 9.176 539.874 9.74801 540.181 24.497C540.46 37.866 540.74 40.061 542.405 41.898C543.453 43.054 545.535 44 547.033 44C551.856 44 552.47 42.047 552.836 25.559L553.172 10.422L556.65 10.828L560.129 11.234L559.814 28.206L559.5 45.178L556.694 47.589C553.212 50.582 545.297 50.894 540 48.248C533.994 45.248 533.003 41.781 533.002 23.75C533 7.144 532.939 7.341 537.681 8.612ZM596.091 9.04501C609.129 10.665 609 10.615 609 14.099C609 16.895 608.763 17.115 606.25 16.644C604.737 16.36 601.362 15.847 598.75 15.503L594 14.877V19.822C594 25.319 594.857 25.959 602.25 25.986C605.861 25.999 606 26.129 606 29.475C606 32.775 605.849 32.926 603 32.475C601.35 32.214 598.65 31.786 597 31.525L594 31.05V36.418C594 42.209 594.716 43 599.957 43C601.493 43 604.156 43.281 605.875 43.625C608.505 44.151 609 44.705 609 47.125C609 50.463 609.526 50.393 596.036 48.859L586 47.718V27.859C586 16.936 586.378 8 586.841 8C587.304 8 591.466 8.47001 596.091 9.04501ZM221.048 11.038C222.999 11.55 225.924 13.355 227.548 15.05L230.5 18.131V31.538C230.5 44.165 230.367 45.077 228.218 47.222C226.125 49.311 225.145 49.482 216.418 49.278C211.183 49.156 206.473 48.792 205.95 48.469C205.402 48.131 205 39.597 205 28.312V8.742L211.25 9.42499C214.688 9.80099 219.096 10.527 221.048 11.038ZM262.75 9.63C264.985 10.229 265 10.361 265 29.617V49H261.5H258V29C258 7.829 257.879 8.325 262.75 9.63ZM348.75 9.63C350.985 10.229 351 10.361 351 29.617V49H347.5H344V29C344 7.829 343.879 8.325 348.75 9.63ZM437.245 16.155C436.399 17.001 436 21.017 436 28.7C436 38.667 436.236 40.236 438 42C440.422 44.422 443.281 44.572 445.107 42.371C447.025 40.06 447.534 21.351 445.77 18C444.285 15.179 439.3 14.1 437.245 16.155ZM213 29.481V42.962L215.655 43.628C221.088 44.992 223.964 40.598 223.985 30.899C224.009 20.102 221.691 16 215.566 16H213V29.481ZM312 21.441C312 21.684 311.55 22.16 311 22.5C310.45 22.84 310 22.641 310 22.059C310 21.477 310.45 21 311 21C311.55 21 312 21.198 312 21.441Z" fill="white"/>
</svg>
